<svg width="20" height="69" fill="none" xmlns="http://www.w3.org/2000/svg"><path d="M19.837 43.768c-.758-14.025-3.726-29.95-8.426-41.997.314-.726-.166-1.99-.795-1.738C3.228 2.988 1.149 23.569.389 33.393-.449 44.23-.682 64.739 7.766 68.317c3.48 1.475 7.613-.424 9.834-5.021 2.592-5.364 2.585-13.092 2.237-19.527zm-2.996-9.739c-2.282-.563-5.462.515-6.814.815-.548.121-1.08.269-1.614.416.063-10.202.9-20.478 1.746-30.579 1.995 6.19 5.013 17.877 6.682 29.348zm-1.237 3.696c-.07.204-.134.39-.186.554-.164-.203-.325-.418-.49-.623.224.02.45.044.676.069zM2.383 34.446c.52-8.546 1.955-23.388 6.6-30.019-1.962 9.672-2.921 20.651-2.829 31.547-.126.046-.25.105-.375.152-.225-.115-.476-.108-.717.094-.115.096-.22.222-.33.329-.844.357-1.682.74-2.513 1.185.049-1.238.107-2.356.164-3.288zm6.529 30.786c-4.686-.488-6.269-8.725-6.68-16.944a.786.786 0 00.356.188c.026.061.073.093.125.04.011-.012.023-.021.035-.033.218-.018.44-.158.64-.482l.154-.252a11.565 11.565 0 012.991-1.807c.471 6.756 1.364 13.312 2.711 19.31-.111-.008-.219-.009-.332-.02zm2.39-.111c-.007-.044-.01-.086-.021-.132-1.5-6.468-2.301-13.078-2.656-19.755.573-.156 1.147-.29 1.715-.409 2.634-.549 5.078.482 7.624.317.499 10.363-.998 18.757-6.661 19.979z" fill="#fff"/></svg>