<svg width="32" height="60" fill="none" xmlns="http://www.w3.org/2000/svg"><path d="M17.892 33.136c-.216-.24-.672-.552-1.368-.936-.696-.408-1.536-.768-2.52-1.08a8.98 8.98 0 00-2.988-.504c-2.712 0-4.068.96-4.068 2.88 0 .696.216 1.248.648 1.656.432.408 1.08.756 1.944 1.044.864.288 1.944.6 3.24.936 1.68.432 3.132.936 4.356 1.512 1.248.576 2.196 1.344 2.844 2.304.672.936 1.008 2.184 1.008 3.744 0 1.824-.444 3.3-1.332 4.428-.864 1.104-2.016 1.908-3.456 2.412s-3 .756-4.68.756c-1.92 0-3.828-.288-5.724-.864-1.872-.6-3.54-1.416-5.004-2.448l2.196-4.284c.216.216.6.504 1.152.864.552.336 1.224.684 2.016 1.044.792.336 1.656.624 2.592.864.936.24 1.884.36 2.844.36 2.736 0 4.104-.876 4.104-2.628 0-.744-.276-1.344-.828-1.8-.552-.456-1.332-.84-2.34-1.152-.984-.312-2.136-.66-3.456-1.044-1.632-.456-2.988-.96-4.068-1.512-1.056-.576-1.848-1.284-2.376-2.124-.528-.864-.792-1.956-.792-3.276 0-1.752.408-3.216 1.224-4.392.84-1.2 1.968-2.1 3.384-2.7 1.416-.624 2.988-.936 4.716-.936 1.776 0 3.432.288 4.968.864 1.536.576 2.856 1.236 3.96 1.98l-2.196 4.032z" fill="#fff"/><path d="M10.664 34V8.44h11.304c1.176 0 2.256.24 3.24.72a8.006 8.006 0 012.592 1.944 8.548 8.548 0 011.692 2.736 8.182 8.182 0 01.612 3.096c0 1.632-.42 3.132-1.26 4.5-.816 1.368-1.932 2.352-3.348 2.952L31.328 34h-5.472L20.6 25.432h-4.968V34h-4.968zm4.968-12.924h6.228c.936 0 1.704-.396 2.304-1.188.624-.816.936-1.8.936-2.952 0-.792-.168-1.5-.504-2.124-.336-.624-.768-1.116-1.296-1.476a2.788 2.788 0 00-1.656-.54h-6.012v8.28z" fill="#fff"/></svg>