<svg width="50" height="48" fill="none" xmlns="http://www.w3.org/2000/svg"><path d="M49.42 34.343c-1.944-.376-3.41.971-5.244-1.037-.48-.524-1.172-.229-1.392.41-1.575 4.584-4.852 2.37-6.353-.842-.29-.621-1.114-.567-1.417 0-1.038 2.831-3.036 3.18-5.995 1.046-.47-.458-1.24-.304-1.417.418-1.289 5.262-5.79 3.816-7.177-.508-.07-.218-.22-.323-.376-.342-.316-.44-1.03-.573-1.277.045-1.774 4.447-5.067 3.766-7.116.006-.37-.679-1.134-.444-1.376.2-1.724 4.576-6.746 4.47-6.657-1.03.01-.608-.808-.728-.946-.142-1.618 6.854 5.902 8.043 8.507 3.012 2.69 3.412 6.726 4.112 8.65-.48 1.642 5.036 7.005 6.027 8.998 1.016 2.531 1.886 4.942 1.59 6.845-1.09 2.32 3.694 6.453 5.055 8.289.497 1.684 1.27 2.8.381 5.238.6.91.08 1.117-1.605.216-1.78zM46.375 41.728c-.762 1.397-1.026 2.649-2.659 3.331-2.01.842-4.011-1.165-5.002-2.81-.342-.569-1.17-.678-1.49 0-1.4 2.967-4.499 2.242-5.821-.622-.325-.705-1.424-.579-1.56.227-.743 4.44-4.08 4.91-6.314 1.692.244-.866-1.028-1.456-1.375-.608-1.875 4.588-5.538 4.076-7.663-.019-.369-.71-1.195-.461-1.434.209-1.727 4.86-4.417 2.548-5.927-.797-.294-.652-1.133-.427-1.31.19-.825 2.874-2.184 3.411-4.474 4.154-.432.14-.365.975.11.905 2.623-.39 4.056-.91 5.128-3.09 2.204 3.837 5.28 4.62 7.343.583 2.677 3.736 6.975 4.162 9.105-.283 2.366 3.59 6.334 3.413 7.923-.498 2.05 2.696 5.033 3.075 7.097.057 3.072 3.445 9.354 4.216 9.578-2.241.028-.77-.918-.998-1.255-.38zM14.11 7.205c-.514.167-.716.597-.7 1.032-3.645.6-6.004 4.61-6.286 8.644-.385 5.519 3.818 8.76 8.375 8.349 4.66-.421 7.691-5.068 7.554-10.061-.137-4.988-4.374-9.45-8.942-7.964zm.76 15.502c-3.345.306-5.509-2.213-5.445-5.826.067-3.787 2.669-6.284 5.684-7.282.056-.018.095-.05.14-.077 2.94.511 5.164 1.759 5.476 5.646.324 4.033-2.33 7.216-5.856 7.539zM9.87 7.038c-.548-.666-1.156-1.25-1.778-1.827-.617-.573-1.272-1.68-2.142-1.59-.46.048-.772.374-.804.898-.061.994.817 1.482 1.457 1.99.73.579 1.49 1.097 2.168 1.755.753.731 1.783-.397 1.1-1.226zM4.827 10.032c.293.04.034-.008-.043-.035-.119-.042-.235-.092-.35-.142a13.029 13.029 0 01-.392-.176l-.026-.013a1.076 1.076 0 00-.61-.574c-.489-.171-1.232-.58-1.76-.396-.299.105-.611.38-.67.747v.002c-.055.347-.031.799.247 1.04.154.134.335.229.524.31-.153 0-.03.008.109.044.098.037.194.076.295.106.243.091.486.184.728.278.139.055.282.06.42.032.497.147 1.041.314 1.529.28.885-.06.848-1.389 0-1.503zM3.31 18.488c-.373.348-.807.62-1.23.882-.219.135-.445.275-.68.374-.14.059-.363.01-.054.073-.154-.032-.299-.035-.452-.053-1.286-.155-1.169 2.435.25 2.05.521-.143 1.055-.698 1.499-1.055.515-.412 1.03-.864 1.454-1.392.485-.603-.24-1.39-.788-.879zM6.587 23.622c-.436.746-.833 1.519-1.248 2.279-.45.824-1.21 1.438-1.31 2.423-.064.63.554.941 1.01.859.933-.169 1.388-1.493 1.73-2.35.351-.886.567-1.814.85-2.727.216-.703-.697-1.058-1.032-.484zM15.403 26.302c-.092-.526-.822-.5-.93 0-.28 1.318-.609 2.625-.885 3.944-.066.319-.009.687.218.916-.037-.055-.033-.044.012.033.27.491.837.435 1.117 0-.256.397.18-.193.197-.223.102-.197.111-.403.122-.623.023-.456.07-.91.11-1.364.077-.886.193-1.8.039-2.683zM25.098 27.081c-.668-1.068-1.727-1.753-2.334-2.856-.415-.755-1.367-.097-1.046.682.278.675.703 1.235 1.142 1.788.21.264.424.521.608.808.251.39.355.83.844.906.282.044.604-.018.746-.34l.04-.088c.121-.273.168-.63 0-.9zM28.981 19.114c-1.123.066-2.247.13-3.37.192-1.011.056-1.011 1.693 0 1.75 1.123.062 2.247.125 3.37.19 1.233.073 1.233-2.204 0-2.132zM28.981 6.815c-1.019-.024-1.842 1.341-2.453 2.134-.656.852-1.233 1.775-1.902 2.616-.511.642.277 1.531.846.944.675-.696 1.288-1.461 1.935-2.188.366-.41.744-.823 1.16-1.172.51-.427.91-.566 1.138-1.276.168-.526-.266-1.047-.724-1.058zM24.085 1.244c-.603.432-1.006 1.133-1.42 1.773-.483.748-.943 1.498-1.502 2.18-.633.77.352 1.881 1.032 1.15.527-.569.994-1.188 1.452-1.826.492-.685 1.125-1.312 1.53-2.06.406-.749-.412-1.703-1.092-1.217zM16.549.218c-.294-.29-.679-.29-.973 0-.577.569-.311 1.563-.263 2.321.055.87.114 1.738.185 2.607.066.81 1.063.81 1.129 0 .07-.869.13-1.737.185-2.607.048-.758.314-1.752-.263-2.321z" fill="#00B2A0"/></svg>